<svg xmlns="http://www.w3.org/2000/svg" version="1.1" xmlns:xlink="http://www.w3.org/1999/xlink" xmlns:svgjs="http://svgjs.com/svgjs" width="512" height="512" x="0" y="0" viewBox="0 0 64 64" style="enable-background:new 0 0 512 512" xml:space="preserve" class=""><g><g id="Battery"><path d="m40 0h-16a3.0033 3.0033 0 0 0 -3 3v6a1 1 0 0 0 1 1h20a1 1 0 0 0 1-1v-6a3.0033 3.0033 0 0 0 -3-3z" fill="#02905d" data-original="#02905d"></path><rect fill="#22b37f" height="56" rx="5" width="36" x="14" y="8" data-original="#22b37f" class=""></rect><path d="m44.8867 31.5381a.9993.9993 0 0 0 -.8867-.5381h-9v-11a1 1 0 0 0 -1.8193-.5732l-14 20a1 1 0 0 0 .8193 1.5732h9v11a1 1 0 0 0 1.8193.5732l14-20a.9979.9979 0 0 0 .0674-1.0351z" fill="#fedf30" data-original="#fedf30"></path></g></g></svg>