<svg xmlns="http://www.w3.org/2000/svg" version="1.1" xmlns:xlink="http://www.w3.org/1999/xlink" xmlns:svgjs="http://svgjs.com/svgjs" width="512" height="512" x="0" y="0" viewBox="0 0 512 512" style="enable-background:new 0 0 512 512" xml:space="preserve" class=""><g><g><g><path d="m225.949 497-.059-18.237c.264-49.313 1.789-124.078 19.307-225.857 3.867 1.743 8.027 2.109 10.811 2.109 2.783 0 6.943-.366 10.781-2.095l.029-.015c20.391 97.603 19.746 175.467 19.307 225.667l-.059 18.428z" fill="#b8ced9" data-original="#b8ced9"></path></g><path d="m286.066 497 .059-18.428c.439-50.2 1.084-128.064-19.307-225.667l-.029.015c-3.838 1.729-7.998 2.095-10.781 2.095v241.985z" fill="#a3bfcc" data-original="#a3bfcc"></path><g id="Wind_Turbine_2_"><g><path d="m324.474 316.626c-29.209-16.919-54.375-36.592-69.111-54.038l-13.682-16.201 19.834-7.515c5.596-2.109 9.492-7.822 9.492-13.872l-9.785-24.961 26.836 5.698c22.002 3.926 50.83 15.498 81.211 32.593 33.136 19.131 100.493 65.924 81.563 99.111-18.793 33.122-93.448-2.003-126.358-20.815z" fill="#cee2e6" data-original="#cee2e6"></path></g><g><path d="m61.154 337.339c-19.278-32.577 48.611-79.968 81.445-98.936 30.527-17.168 59.355-28.74 81.357-32.666l26.396-4.717-9.785 24.961c.439 5.068 4.336 10.781 9.932 12.891l19.834 7.515-13.682 16.201c-14.736 17.446-39.902 37.119-69.023 53.994-32.967 18.838-107.864 54.09-126.474 20.757z" fill="#ebf2f2" data-original="#ebf2f2" class=""></path></g><g><path d="m281.818 226.685-16.436-13.506c-5.038-4.16-13.71-4.16-18.75 0l-16.435 13.506-7.207-20.01c-7.617-21.152-11.982-52.749-11.982-86.675 0-12.275 1.26-120 45-120s45 107.725 45 120c0 33.926-4.365 65.522-11.982 86.675z" fill="#ebf2f2" data-original="#ebf2f2" class=""></path></g><path d="m265.381 213.179 16.436 13.506 7.207-20.01c7.617-21.152 11.982-52.749 11.982-86.675 0-12.275-1.26-120-45-120v210.059c3.429 0 6.857 1.04 9.375 3.12z" fill="#cee2e6" data-original="#cee2e6"></path><g><path d="m121.007 482h270v30h-270z" fill="#97de3d" data-original="#97de3d"></path></g><g><path d="m256.007 482h135v30h-135z" fill="#59c36a" data-original="#59c36a"></path></g><g><path d="m390.07 209.092c-4.277-36.519-23.701-70.151-53.291-92.271l17.988-24.023c36.123 27.026 59.854 68.145 65.127 112.808z" fill="#59abff" data-original="#59abff"></path></g><g><path d="m121.945 209.092-29.824-3.486c5.273-44.663 29.004-85.781 65.127-112.808l17.988 24.023c-29.59 22.119-49.014 55.752-53.291 92.271z" fill="#66ccff" data-original="#66ccff"></path></g><g><path d="m478.927 255.571-29.707-4.102c12.132-87.438-36.064-172.988-119.561-207.07l11.367-27.773c97.228 39.702 151.721 138.972 137.901 238.945z" fill="#59abff" data-original="#59abff"></path></g><g><path d="m33.058 255.513c-13.785-100.161 40.895-199.264 137.93-238.887l11.367 27.773c-82.926 33.849-131.561 118.664-119.59 207.1z" fill="#66ccff" data-original="#66ccff"></path></g></g><g><g><g><path d="m256.007 255c-16.621 0-30-13.644-30-30 0-15.523 11.68-29.692 30.029-29.692 18.219 0 29.971 14.426 29.971 29.692 0 16.361-13.382 30-30 30z" fill="#465d8c" data-original="#465d8c"></path></g></g></g><path d="m286.007 225c0-15.267-11.752-29.692-29.971-29.692-.011 0-.018.005-.029.005v59.687c16.617 0 30-13.64 30-30z" fill="#333b66" data-original="#333b66"></path></g></g></svg>